<svg width="90" height="90" viewBox="0 0 90 90" fill="none" xmlns="http://www.w3.org/2000/svg">
<mask id="mask0_1160_23265" style="mask-type:luminance" maskUnits="userSpaceOnUse" x="4" y="5" width="81" height="81">
<path d="M84.4651 45.0293C84.4651 22.9379 66.5564 5.0293 44.4649 5.0293C22.3735 5.0293 4.46484 22.9379 4.46484 45.0293C4.46484 67.1207 22.3735 85.0293 44.4649 85.0293C66.5564 85.0293 84.4651 67.1207 84.4651 45.0293Z" fill="white"/>
</mask>
<g mask="url(#mask0_1160_23265)">
<path d="M84.4651 45.0293C84.4651 22.9379 66.5564 5.0293 44.4649 5.0293C22.3735 5.0293 4.46484 22.9379 4.46484 45.0293C4.46484 67.1207 22.3735 85.0293 44.4649 85.0293C66.5564 85.0293 84.4651 67.1207 84.4651 45.0293Z" fill="url(#paint0_radial_1160_23265)"/>
<path d="M71.6655 32.5435C71.4983 33.5226 71.3021 33.9973 71.0727 34.547L71.0723 34.5483C70.8244 35.1437 70.5433 35.8197 70.2889 37.1609C70.1876 37.6977 70.1372 38.0918 70.0932 38.4388L70.0902 38.4604L70.0876 38.4806C70.0169 39.0364 69.9694 39.411 69.7435 40.0775C69.5603 40.6216 69.2538 41.53 68.5157 42.5083C67.9194 43.2998 66.9213 44.6247 65.5896 44.7834C65.474 44.7911 65.2322 44.8032 65.1334 44.7527C61.3554 42.8234 58.1094 41.3981 56.9859 41.0782C55.6791 40.7079 55.8464 37.8585 55.9943 35.3446C56.0607 34.221 56.1232 33.1587 56.0706 32.249C55.8869 29.0755 55.3252 25.6019 52.5612 23.9084C50.9112 22.8978 48.7827 22.6012 46.7491 22.5969C47.1259 22.4175 47.5462 22.1739 48.0041 21.9075L48.0183 21.8993C49.2156 21.206 50.7021 20.3451 52.1792 20.1937C52.662 20.1459 53.1367 20.0903 53.6049 20.0381C56.5823 19.7009 59.1549 19.4112 61.868 20.3403C63.098 20.7624 65.621 22.17 66.2725 23.4768C66.7312 24.3994 67.5051 25.1186 69.049 26.5538C69.8526 27.3014 70.382 27.7364 70.7696 28.0546L70.7873 28.0692C71.3314 28.5167 71.4388 28.6103 71.6009 28.941C72.101 29.9606 71.9186 31.0436 71.6655 32.5435Z" fill="white"/>
<path d="M57.9219 45.5896C58.1008 45.6512 58.1676 45.8685 58.0637 46.0263C57.6602 46.6385 57.198 47.4783 56.644 48.5053C56.384 48.9895 56.1378 49.4465 55.9313 49.803C55.1993 51.0602 55.1398 52.1182 55.0932 52.9675C55.0428 53.8556 54.9979 54.2635 54.4672 54.6175C54.0292 54.9111 53.5804 55.0089 50.4697 55.4827C49.9269 55.5668 49.6859 55.672 49.4743 55.7643C49.4165 55.7893 49.3591 55.8143 49.2936 55.8389C49.1138 55.9061 48.9379 55.7531 48.9487 55.5621C48.9733 55.1137 48.9892 54.5536 48.991 53.8492V53.7142C49.0073 53.1046 48.9819 52.6101 48.9599 52.2113C48.919 51.4172 48.9138 51.0826 49.1255 50.7368C49.3854 50.3191 49.5881 50.1915 49.9213 49.9802C50.3865 49.6879 51.0246 49.2856 51.9688 47.9879C52.4706 47.3007 52.5819 46.9282 52.6513 46.6062C52.6814 46.4725 52.6922 46.4225 53.0785 46.1298C53.4868 45.8198 54.7315 44.8769 56.3245 45.1446C56.7651 45.2192 57.3265 45.3839 57.9219 45.5896Z" fill="white"/>
<path d="M45.5449 59.9312C45.4772 60.0195 45.3979 60.0605 45.2836 60.0661C44.9586 60.0799 44.7301 59.9993 44.5787 59.8173C44.258 59.4267 44.3011 58.6421 44.3761 58.1834L45.6915 57.8328C45.7945 58.5291 45.8428 59.5436 45.5449 59.9312Z" fill="white"/>
<path d="M45.6514 55.184C45.6294 55.3758 45.6053 55.5918 45.6061 55.8177C45.6078 55.9018 45.6087 55.9867 45.6113 56.0691C45.6139 56.2842 45.6225 56.6257 45.5928 56.7809C45.1819 56.9305 44.831 56.9305 44.3696 56.9223C44.3627 56.7891 44.3714 56.5903 44.3765 56.4562C44.3791 56.3528 44.3847 56.2497 44.386 56.1514C44.3873 56.0423 44.386 55.935 44.386 55.8276C44.3843 55.5746 44.3808 55.1598 44.4429 55.0378C44.5667 55.0197 44.6934 54.9925 44.8292 54.9615C45.1013 54.9029 45.4561 54.8279 45.682 54.8619C45.6785 54.9499 45.6648 55.0805 45.6514 55.184Z" fill="white"/>
<path d="M43.2176 59.5263C43.1543 60.2006 42.946 61.0344 42.3136 61.1612C42.029 61.2198 41.8915 61.134 41.8048 61.0525C41.3776 60.6568 41.3094 59.4608 41.3689 58.6054C41.6535 58.6106 42.0264 58.5468 42.4679 58.4614C42.7374 58.408 43.0055 58.3485 43.2189 58.2993C43.2435 58.6158 43.2612 59.0676 43.2176 59.5263Z" fill="white"/>
<path d="M42.9189 57.1055L41.4918 57.6061C41.5642 57.0521 41.6608 56.2726 41.6949 55.7548C41.7195 55.3901 41.8186 55.2784 41.8471 55.2542C41.8566 55.2461 41.8755 55.2288 41.9286 55.2288C41.9367 55.2288 41.9449 55.2301 41.954 55.2301L41.9842 55.2344L42.8857 55.1853C42.924 55.6091 42.924 56.5399 42.9189 57.1055Z" fill="white"/>
<path d="M40.6132 56.6619C40.5325 56.8766 40.4373 57.4849 40.3778 57.913L38.5903 57.8587C38.6912 57.3051 38.8309 56.7417 38.9844 56.2928C39.1396 55.8466 39.3068 55.5121 39.4607 55.4181C39.6401 55.3103 40.035 55.2862 40.2769 55.4927C40.6701 55.8281 40.7787 56.2118 40.6132 56.6619Z" fill="white"/>
<path d="M39.9458 62.133C39.8074 62.3222 39.6535 62.4184 39.4629 62.4386C39.2685 62.4606 39.1171 62.4171 38.9964 62.3041C38.4351 61.7859 38.4808 60.0881 38.5015 59.272C39.2426 59.103 40.0428 58.9594 40.4222 58.9374C40.4791 59.6208 40.4955 61.3849 39.9458 62.133Z" fill="white"/>
<path d="M37.6129 57.8104C37.5258 58.0432 37.4413 58.2631 37.3775 58.458C37.1697 58.5231 36.5342 58.4662 35.8854 58.323L36.3316 55.5099C37.0645 55.3155 37.9147 55.2529 38.1204 55.4707C38.3911 55.7582 37.847 57.1973 37.6129 57.8104Z" fill="white"/>
<path d="M36.8041 62.5611C36.4575 62.9883 35.9375 63.1879 35.2124 63.1802C34.7105 63.172 34.5312 62.9814 34.4415 62.8387C34.0388 62.2011 34.4329 60.6977 34.8278 59.7376L37.249 59.8829C37.2736 60.0515 37.2939 60.2567 37.3034 60.48C37.3301 61.1633 37.2443 62.0144 36.8041 62.5611Z" fill="white"/>
<path d="M56.813 42.147C54.6332 41.5296 54.8207 38.3422 55.0022 35.2618C55.0665 34.1719 55.1273 33.1411 55.0777 32.2986C54.9104 29.4152 54.4254 26.2748 52.1063 24.8534C49.6118 23.3281 45.5311 23.6756 43.0133 23.9959C43.0111 23.9963 43.009 23.9976 43.0068 23.998C43.0055 23.998 43.0047 23.998 43.0038 23.9985C42.0816 24.2778 41.2189 24.4589 40.5502 24.4236C39.0645 24.3468 37.9087 23.7213 36.8908 23.1724C36.0966 22.7422 35.4038 22.3705 34.7515 22.3705C34.717 22.3705 34.6808 22.3705 34.645 22.3718C32.6933 22.4986 31.7961 22.9754 30.9812 23.7027C30.7764 23.8838 30.5264 24.4093 29.7081 26.7672C29.2951 27.9588 29.2187 28.6107 29.142 29.2445C29.073 29.8235 29.0027 30.4189 28.6949 31.307C28.4806 31.9201 28.3224 32.4487 28.1694 32.9583C27.7658 34.3124 27.4468 35.3791 26.4884 36.6475C26.3759 36.7975 26.2366 37.0182 26.0754 37.2696C25.8581 37.6119 25.589 38.0374 25.2342 38.5302C24.9837 38.8773 24.4086 40.1763 24.4401 40.5721C24.4871 41.2024 24.6918 41.5934 24.9264 42.05C25.1596 42.5001 25.4252 43.0097 25.4735 43.7133L25.4817 43.8275C25.5671 44.9437 25.408 45.5038 23.2846 47.4003C21.927 48.6152 20.9625 49.7853 20.312 50.6442C20.2546 50.72 20.3292 50.8326 20.4241 50.8248C20.446 50.8218 20.468 50.8205 20.4883 50.8205C20.5293 50.817 20.5698 50.8157 20.6103 50.8157C20.6508 50.8157 20.6918 50.817 20.7319 50.8188C20.7728 50.8205 20.8121 50.8235 20.8522 50.8295C21.3657 50.8882 21.8662 51.1055 22.2275 51.4797C22.2904 51.5448 22.3883 51.5625 22.4719 51.5288C22.8177 51.3848 23.1975 51.4086 23.5605 51.4426C24.0089 51.484 24.4616 51.6181 24.7591 51.9074C24.8488 51.9949 24.9768 52.0393 25.0993 52.0113C25.4506 51.9315 25.8193 51.9388 26.1611 52.063C26.431 52.1635 26.6578 52.3221 26.838 52.5217C26.9639 52.6614 27.1872 52.6882 27.345 52.5864C27.4433 52.523 27.5516 52.4696 27.6718 52.429C28.1327 52.2725 28.6428 52.3618 29.0903 52.5226C29.3106 52.6019 29.5417 52.6726 29.7404 52.8054C30.1056 53.0486 30.3285 53.4038 30.4708 53.8009C30.5514 54.0247 30.8527 54.1023 31.0355 53.9501C31.3641 53.6767 31.624 53.6306 31.8862 53.747C32.0198 53.8074 32.1129 53.8901 32.1755 53.994C32.2845 54.1747 32.5066 54.3234 32.7096 54.2665C33.4232 54.0678 34.3165 54.1712 34.9636 54.5179C35.1921 54.6377 35.4167 54.821 35.5805 55.0977L35.581 55.0982C35.5814 55.0995 35.5827 55.099 35.5827 55.0977L35.6017 54.9749C35.6103 54.9193 35.6495 54.8731 35.7034 54.8563L35.8535 54.8102C36.207 54.6977 38.0083 54.1786 38.7089 54.9162C38.739 54.9464 38.7916 54.9494 38.8209 54.918C38.9162 54.8132 38.9938 54.7559 39.0434 54.7274C39.4995 54.4506 40.2821 54.4334 40.8024 54.8792C40.9072 54.9671 41.0771 54.9352 41.156 54.8231C41.2047 54.7546 41.2599 54.6938 41.322 54.6416C41.5048 54.4838 41.7363 54.4084 41.9928 54.4243L42.9822 54.3709C43.231 54.3571 44.0045 54.3045 44.248 54.2532C44.2666 54.2493 44.2856 54.2458 44.305 54.2428C44.408 54.2269 44.5304 54.2006 44.6585 54.1738C45.1383 54.0691 45.6829 53.9514 46.1299 54.1579C46.5593 54.3566 46.505 54.846 46.4533 55.2775C46.433 55.4526 46.411 55.6354 46.4128 55.8091C46.4158 55.8902 46.4175 55.9716 46.4188 56.0549C46.4253 56.4269 46.433 56.7705 46.3593 57.0344V57.0374L46.4046 57.2418C46.4067 57.2495 46.4089 57.2594 46.4115 57.2715C46.452 57.4586 46.6529 57.563 46.8163 57.4634C47.1612 57.253 47.5238 56.9796 47.6333 56.8223C47.6415 56.8102 47.648 56.7977 47.6527 56.7839C47.6678 56.7442 47.6958 56.6584 47.7264 56.4791C47.7876 56.1113 47.8562 55.3642 47.8622 53.847C47.8622 53.7668 47.8622 53.7095 47.864 53.6828C47.8765 53.1197 47.8545 52.6679 47.8325 52.2691C47.792 51.4465 47.7588 50.7994 48.167 50.1406C48.5645 49.4995 48.9504 49.2572 49.3212 49.0222C49.7523 48.7519 50.2391 48.445 51.0587 47.321C51.4605 46.7674 51.5101 46.5441 51.5493 46.3656C51.6385 45.9478 51.7765 45.6965 52.3969 45.2274C52.9022 44.8459 54.4392 43.6809 56.5129 44.0297C57.1928 44.1453 58.2952 44.5078 59.383 44.9364C59.383 44.9364 59.3838 44.9368 59.3847 44.9368H59.386C59.4265 44.9489 59.4683 44.9631 59.5067 44.9834C59.5205 44.9907 59.5347 44.9976 59.5494 45.0037C60.5212 45.3917 61.4666 45.825 62.0724 46.1712C62.2134 46.2518 62.394 46.2052 62.4932 46.0763C62.6915 45.8189 62.9079 45.6698 63.1412 45.5296C63.2287 45.4766 63.2959 45.4361 63.3602 45.3813C63.3822 45.3628 63.4037 45.3447 63.4249 45.3274C63.6059 45.1809 63.6055 44.8674 63.3981 44.7605C60.4755 43.2494 57.7227 42.4056 56.813 42.147ZM36.0419 42.8178C35.3676 45.7685 30.7967 49.0119 28.7191 49.0119H28.6781C28.6453 49.0102 28.6091 49.0071 28.5703 49.0007C28.5311 48.9946 28.4888 48.9852 28.444 48.9727C28.422 48.9662 28.3983 48.9584 28.375 48.9524C27.9978 48.8334 27.4757 48.5437 27.0803 48.1548C26.8083 47.8879 26.594 47.5728 26.5267 47.2335C26.5142 47.174 26.5017 47.1149 26.4888 47.0554C26.3767 46.5536 26.237 45.9267 26.6798 44.9006C26.741 44.7631 26.7953 44.6346 26.8454 44.5173C26.8613 44.4785 26.8786 44.4393 26.8941 44.4018C26.9411 44.291 26.9829 44.1892 27.0208 44.097C27.0833 43.9409 27.1346 43.8081 27.1769 43.6952C27.1941 43.6512 27.2101 43.6089 27.2239 43.5701C27.3506 43.2153 27.3662 43.0825 27.3834 42.945C27.3994 42.8372 27.4149 42.7053 27.4589 42.5177C27.5886 41.9642 27.6559 41.4951 27.7154 41.0773C27.8219 40.3263 27.9141 39.6779 28.319 39.082C28.388 38.9807 28.4643 38.888 28.5505 38.807C28.5802 38.779 28.6087 38.7522 28.6393 38.7255C28.6708 38.6988 28.7022 38.6755 28.7329 38.6518C28.8312 38.5828 28.9363 38.522 29.0502 38.4703C29.0894 38.453 29.1286 38.4358 29.1674 38.422C29.2476 38.3922 29.3317 38.3668 29.4196 38.3448C29.7917 38.2547 30.231 38.2405 30.7359 38.3043C31.2882 38.3483 31.7995 38.4526 32.2526 38.5794C32.6312 38.6837 32.9692 38.8061 33.255 38.92C33.2848 38.9312 33.3132 38.9419 33.3412 38.9544C33.396 38.9764 33.449 38.9984 33.5008 39.0221C33.5792 39.0549 33.6508 39.0864 33.718 39.1157C33.8073 39.1562 33.8888 39.1924 33.9608 39.2248L34.028 39.2562C34.3471 39.4015 34.6213 39.561 34.8554 39.7283C34.9709 39.8133 35.0791 39.899 35.1757 39.9861C35.2089 40.0146 35.2404 40.0443 35.2693 40.0754C35.3007 40.1056 35.3305 40.1353 35.3585 40.1651C36.2367 41.0898 36.1932 42.1595 36.0419 42.8178ZM38.16 31.6338L38.0712 32.1689C37.8664 33.3743 37.3956 35.0273 35.6599 35.4528C33.9901 35.8611 33.5943 35.9482 32.4057 36.0016C32.3794 36.0046 32.3509 36.0046 32.3229 36.0046C31.455 36.0046 29.7848 35.4575 29.4891 34.0969C29.2998 33.2212 29.6861 32.5866 30.3225 31.5342C30.4285 31.3605 30.5432 31.1742 30.6648 30.9664C31.5059 29.5493 31.8374 28.5236 32.1039 27.701C32.363 26.8974 32.579 26.233 33.1343 25.6825C33.2623 25.5544 33.4076 25.4337 33.5766 25.3182C33.6844 25.2444 33.7969 25.1789 33.9159 25.1177C34.0737 25.0392 34.2393 24.9711 34.413 24.9159C34.7993 24.7926 35.2167 24.7301 35.6344 24.7301C36.4441 24.7301 37.2529 24.9629 37.8298 25.4259C38.0893 25.6338 38.4584 26.0494 38.6726 27.2755C38.783 27.9071 38.595 29.0677 38.16 31.6338ZM50.5434 35.0648C49.9459 36.0904 49.6191 36.6552 49.103 37.0786C48.0791 37.9197 46.8844 38.1327 45.9006 38.1327C45.194 38.1327 44.5938 38.0236 44.2403 37.959C43.2237 37.7731 41.3319 37.4291 40.7015 35.9357C40.5782 35.6403 40.577 35.4528 40.577 35.2148C40.577 34.9798 40.5769 34.5849 40.4674 33.6446L40.4614 33.5821C40.411 33.1566 40.3549 32.675 40.4769 32.0572L40.4912 31.9835C40.8477 30.1701 40.9443 29.8929 41.0245 29.7364C41.209 29.3799 41.6466 29.2393 42.0031 29.4225C42.3485 29.6023 42.4925 30.021 42.3299 30.3728C42.2937 30.4758 42.1924 30.8621 41.9169 32.265L41.9027 32.3387C41.8242 32.7345 41.8587 33.0346 41.9044 33.4148L41.9104 33.4791C42.029 34.5 42.029 34.9626 42.029 35.2131C42.029 35.2575 42.029 35.3058 42.0307 35.3347C42.0312 35.3459 42.0368 35.3605 42.0402 35.3713C42.1583 35.6515 42.4248 35.8641 42.7494 36.0275C42.9512 36.1288 43.162 35.9361 43.1172 35.7149C42.7943 34.1167 42.8119 32.2525 43.4224 31.1005C43.6225 30.7181 43.9924 30.0921 44.3438 29.5079C44.3451 29.5062 44.3459 29.5049 44.3468 29.5032C44.3476 29.5014 44.3489 29.5002 44.3498 29.4984C44.3856 29.4394 44.4209 29.3811 44.4563 29.3225C44.486 29.2721 44.5158 29.2242 44.5434 29.1772C44.6981 28.9203 44.8434 28.6845 44.9598 28.4969C44.9754 28.4702 44.9909 28.4434 45.0068 28.4184C45.0176 28.3995 45.0288 28.3822 45.0396 28.3667C45.0646 28.3257 45.0866 28.2882 45.1073 28.2559C45.1164 28.2404 45.1258 28.2262 45.1336 28.2119C45.1383 28.2059 45.1418 28.1994 45.1448 28.1947C45.1556 28.1757 45.1668 28.1585 45.1763 28.1447C45.1948 28.1149 45.209 28.0929 45.2168 28.0787C45.2177 28.0774 45.2181 28.0765 45.2185 28.0752C45.2203 28.0722 45.2237 28.0675 45.2254 28.0645C45.2267 28.0623 45.2271 28.0619 45.2284 28.0597C45.3496 27.8834 45.4694 27.7157 45.5859 27.5579C45.7441 27.3436 45.5608 27.063 45.3142 27.1638C44.721 27.4057 44.3157 27.7148 44.2334 27.7799C43.9191 28.0304 43.4621 27.9787 43.2138 27.6644C42.965 27.3505 43.0167 26.8922 43.331 26.6417C43.7048 26.3481 45.6859 24.903 48.0584 25.5816C49.7678 26.0679 50.6637 27.3738 51.0013 27.8649C51.2734 28.2637 52.1072 29.4743 52.0804 31.1643C52.0606 32.4534 51.523 33.3808 50.5434 35.0648Z" fill="white"/>
<path d="M35.1352 26.2253C35.0136 26.5193 34.8683 26.8836 34.7122 27.2794C34.3475 28.196 33.934 29.2341 33.7353 29.6105C33.3925 30.2611 33.1257 30.6715 32.9127 31.0022C32.6687 31.382 32.4742 31.6825 32.3277 32.1016C32.0703 32.8345 32.0241 33.6537 32.1914 34.5444C31.737 34.4944 30.9933 34.1814 30.9092 33.7869C30.8463 33.4933 31.0286 33.1721 31.5663 32.2879C31.674 32.1115 31.7896 31.9197 31.9159 31.7063C32.8398 30.1503 33.2136 28.9927 33.4887 28.1464C33.7853 27.2255 33.9254 26.8392 34.3975 26.5167C34.6088 26.3697 34.8657 26.2761 35.1352 26.2253Z" fill="white"/>
<path d="M34.2328 58.8551C33.7293 59.8837 33.1024 60.8331 32.7118 61.3035C32.3884 60.4291 31.8262 58.4257 31.9746 56.8137C31.9789 56.7671 31.984 56.721 31.9909 56.6761C32.0504 56.1782 32.1828 55.7216 32.4182 55.3556C32.5734 55.115 33.0032 54.968 33.4913 54.968C33.8517 54.968 34.2436 55.0469 34.5812 55.2279H34.5838C34.7644 55.3245 35.0106 55.5203 35.0365 56.0889C35.0735 56.8572 34.7075 57.8898 34.2328 58.8551Z" fill="white"/>
<path d="M61.8232 47.3279C61.862 47.3593 61.8866 47.4068 61.8642 47.4516C61.7137 47.7538 61.5335 47.966 61.3205 48.2156C61.0635 48.5217 60.7695 48.8687 60.4962 49.4098C60.1069 50.1768 59.9823 50.8765 59.9167 52.6679C59.8396 54.7722 59.921 55.9544 59.9823 56.8162C60.0405 57.6487 60.0762 58.1506 59.9279 58.9624C59.6287 60.6003 58.9281 61.6846 58.0409 63.0569C56.9307 64.7732 55.7826 66.5473 53.8813 67.113C53.7045 67.1673 53.6985 67.1673 53.2027 67.169C52.7711 67.169 52.0533 67.1707 50.6944 67.2207C48.2106 67.3109 46.9646 67.3557 45.8984 67.5605C44.7801 67.7769 44.1967 68.0149 43.6311 68.2434C43.1206 68.4499 42.6382 68.6461 41.7134 68.8362C41.162 68.9474 40.3381 69.069 37.5306 69.0733C34.6127 69.0785 32.8511 69.0798 30.5251 68.8146C27.3338 68.4503 25.7318 68.268 24.6677 67.6997C22.1581 66.3611 21.0984 63.9536 19.3454 59.9652C19.3424 59.9583 19.3393 59.9514 19.3363 59.9441C19.3148 59.8945 19.3751 59.8467 19.4217 59.8743C19.5049 59.926 19.5916 59.9687 19.683 59.9993C19.7597 60.0264 19.8394 60.0471 19.9201 60.0605C20.0805 60.0877 20.2477 60.0894 20.4176 60.0605C20.4474 60.0553 20.4745 60.0484 20.5008 60.0377C20.506 60.0355 20.5107 60.0329 20.5159 60.0308C20.5457 60.0161 20.5823 60.0282 20.5948 60.0588C20.7065 60.3662 20.8837 60.6399 21.1811 60.7977C21.4791 60.9529 21.8179 60.965 22.1495 60.9624C22.4909 60.9573 22.835 60.9379 23.1751 60.8969C23.3553 60.8779 23.5399 60.9663 23.6088 61.134C23.9206 61.8894 24.3064 62.436 24.8863 62.5167C24.9178 62.521 24.9587 62.5261 25.0105 62.5261C25.1411 62.5261 25.3429 62.4882 25.6274 62.2925C25.8477 62.1416 26.1888 62.2304 26.347 62.4455C26.4918 62.6417 26.6643 62.7827 26.8126 62.9017C27.4097 63.5147 28.8609 63.8088 30.0797 63.8088C30.7445 63.8088 31.3408 63.7212 31.6917 63.5505C32.1936 63.3069 32.1936 62.9331 32.169 62.7818C32.1263 62.5106 32.0875 62.2416 32.0547 61.9752C32.0509 61.9433 32.0992 61.9307 32.1121 61.9605C32.185 62.1196 32.2742 62.3179 32.5118 62.3563C32.5376 62.3589 32.5665 62.3645 32.5993 62.3645C32.939 62.3645 33.4676 62.4753 33.5585 62.8025C33.6051 62.9693 33.6706 63.1254 33.7599 63.2664C33.9638 63.5893 34.379 63.9739 35.202 63.9877H35.2658C36.2109 63.9877 36.9404 63.6786 37.4323 63.0676C37.4642 63.0284 37.4948 62.9879 37.5241 62.9469C37.7009 62.6977 38.226 62.687 38.4506 62.8939C38.7037 63.128 39.0223 63.2487 39.3771 63.2487C39.434 63.2487 39.4918 63.2461 39.5513 63.2392C39.9742 63.1944 40.3403 62.9702 40.6136 62.5878C40.7925 62.3382 40.9232 62.0312 41.0184 61.6992C41.0465 61.6014 41.181 61.5725 41.256 61.641C41.4366 61.8083 41.7264 61.9851 42.1441 61.9851C42.2459 61.9851 42.3562 61.9743 42.4735 61.9497C43.2944 61.7846 43.7031 61.1051 43.8967 60.3381C43.9031 60.3123 43.9402 60.3054 43.9575 60.3256C44.1653 60.5787 44.549 60.871 45.2168 60.871C45.2509 60.871 45.2862 60.871 45.3211 60.8693C45.6747 60.8529 45.9726 60.6977 46.1877 60.4201C46.4494 60.079 46.5525 59.5733 46.5762 59.0646C46.5831 58.9163 46.6788 58.7861 46.8159 58.7287C47.5203 58.4343 48.3736 57.8001 48.6236 57.3681C48.6322 57.353 48.6409 57.337 48.6495 57.3207C48.7068 57.2094 48.8051 57.1215 48.928 57.0982C49.4738 56.9947 49.7118 56.8917 49.9282 56.7977C50.1046 56.7201 50.2464 56.6589 50.6431 56.5972C53.799 56.1156 54.415 56.0096 55.098 55.5543C56.1193 54.8731 56.171 53.9354 56.2215 53.0283C56.2646 52.2613 56.3138 51.3909 56.9096 50.3695C57.126 49.9966 57.3756 49.5314 57.6412 49.039C58.106 48.1772 58.7552 46.9705 59.22 46.338C59.3075 46.2186 59.4658 46.1815 59.602 46.2393C60.6928 46.7027 61.6219 47.1666 61.8232 47.3279Z" fill="white"/>
<path d="M31.1752 56.7184C31.0502 57.8096 30.9739 59.2672 31.1507 61.1659C31.2007 61.7018 31.2705 62.258 31.3572 62.8215C31.2076 62.903 30.7609 63.0172 29.9668 63.0047C28.8256 62.9819 27.7145 62.6947 27.3808 62.3339L27.3291 62.2873C27.0514 62.0644 26.8695 61.9174 26.8436 61.519C26.835 61.3845 26.8928 61.2513 27.0161 61.0629C27.0842 60.9568 27.1739 60.8344 27.2851 60.6835C27.477 60.4261 27.715 60.1053 27.9586 59.6915C28.6729 58.4847 28.9437 58.1122 29.2877 57.6414C29.3149 57.6035 29.3438 57.5651 29.3735 57.5259C29.5762 57.2482 29.8141 56.9163 30.172 56.3709C30.4384 55.966 30.66 55.6487 30.8428 55.3995C31.1476 54.9852 31.3472 54.7602 31.4753 54.6377C31.4563 54.8257 31.4141 55.0896 31.3731 55.3331C31.3128 55.7078 31.2365 56.1661 31.1752 56.7184Z" fill="white"/>
<path d="M30.6523 39.7546C30.6454 39.7641 30.6372 39.7736 30.6303 39.7835C30.482 39.9892 30.3121 40.2215 30.1095 40.6742C29.5654 41.8836 29.555 42.5682 29.5464 43.1187C29.5412 43.4072 29.5382 43.637 29.4593 43.9051C29.405 44.0819 29.3166 44.2845 29.2144 44.5182C28.8937 45.2528 28.4746 46.216 28.6626 47.512C28.4026 47.3869 28.0051 47.1011 27.9499 46.9489C27.9361 46.8782 27.921 46.8088 27.9051 46.7394C27.815 46.335 27.7555 46.0716 28.0124 45.4796C28.6885 43.9207 28.7717 43.5512 28.8247 43.1265C28.8355 43.0338 28.8467 42.9618 28.8738 42.8445C29.0165 42.2298 29.0911 41.7033 29.1524 41.2804C29.2433 40.6384 29.3045 40.2138 29.521 39.8943C29.5999 39.7762 29.8232 39.715 30.1427 39.715C30.269 39.715 30.4117 39.7244 30.5673 39.7464L30.6035 39.749C30.6195 39.7507 30.6363 39.752 30.6523 39.7546Z" fill="white"/>
<path d="M29.7607 55.1331C29.724 54.7593 29.6585 54.3847 29.5227 54.0324C29.5132 54.0147 29.4727 53.9246 29.4641 53.9074C29.4395 53.8626 29.4115 53.8203 29.3852 53.7759C29.3834 53.7742 29.3826 53.7742 29.3826 53.7729C29.3809 53.7703 29.38 53.7703 29.38 53.769C29.3649 53.7526 29.3511 53.7367 29.3364 53.7211C29.3145 53.6992 29.2908 53.678 29.267 53.6586C29.2627 53.6535 29.2588 53.6492 29.255 53.6474C29.2442 53.6384 29.2278 53.6254 29.2101 53.6151C29.1812 53.6 29.1541 53.5836 29.1261 53.5694C29.1174 53.5638 29.0972 53.5556 29.0782 53.5487C29.0782 53.5487 29.0769 53.5487 29.0769 53.5474C29.0726 53.5457 29.0683 53.5448 29.0648 53.5431C29.0605 53.5405 29.0579 53.5388 29.0553 53.5379C29.051 53.5362 29.0485 53.5353 29.0459 53.5353C29.0433 53.5353 29.0433 53.5336 29.0433 53.5336C29.0347 53.5293 29.0295 53.5284 29.0256 53.5267C28.8079 53.447 28.5871 53.3594 28.3561 53.3254C28.3548 53.3254 28.3509 53.3241 28.3479 53.3241H28.3427C28.3168 53.3241 28.2638 53.3189 28.2612 53.3189C28.2289 53.3172 28.1974 53.3172 28.1659 53.3189C28.1508 53.3189 28.1362 53.3189 28.1224 53.3202H28.1103C28.1051 53.3202 28.0987 53.3219 28.0918 53.3219C28.0892 53.3245 28.0849 53.3245 28.0832 53.3245C28.0819 53.3245 28.0806 53.3245 28.0806 53.3245C28.0288 53.3396 27.9745 53.3534 27.9228 53.3693C27.9008 53.3805 27.8766 53.3913 27.8547 53.4051C27.8361 53.4159 27.8167 53.4297 27.7977 53.4392C27.7964 53.4405 27.7939 53.4431 27.7908 53.4431L27.787 53.4474C27.7624 53.4719 27.7365 53.4948 27.7119 53.5194C27.7037 53.528 27.6809 53.556 27.6645 53.5767C27.6602 53.5793 27.6576 53.5819 27.6576 53.5845C27.6563 53.5858 27.6563 53.5858 27.655 53.5871C27.6537 53.5884 27.6537 53.5896 27.6507 53.5909C27.6494 53.5927 27.6494 53.594 27.6481 53.594C27.6417 53.6056 27.6348 53.6155 27.6322 53.6211C27.5447 53.7569 27.4563 53.8919 27.3653 54.026C27.1558 54.3471 26.9411 54.6666 26.7233 54.9839C26.5246 55.2711 26.3263 55.5582 26.1288 55.8449C26.0184 56.0057 25.9098 56.1644 25.8012 56.3252C25.7822 56.3523 25.7645 56.3795 25.7468 56.4067C25.8757 56.4312 26.0051 56.4567 26.1357 56.4813C26.428 56.5347 26.719 56.586 27.0157 56.6265C27.6261 56.7097 28.247 56.7481 28.8657 56.7261C28.8954 56.7244 28.9252 56.7261 28.9527 56.7313C29.1015 56.5192 29.2765 56.2661 29.4998 55.9272C29.6236 55.738 29.7417 55.5629 29.8529 55.4008C29.8029 55.3232 29.7715 55.2305 29.7607 55.1331Z" fill="white"/>
<path d="M27.586 57.6561C27.5334 58.1269 27.0066 59.3453 26.1849 60.5054C25.4968 61.4755 25.079 61.7109 24.9958 61.7191C24.6638 61.6729 24.3362 60.8512 24.0762 60.0364C23.9719 59.7061 23.8774 59.3767 23.7985 59.1008C23.6205 58.4808 23.5882 57.6492 23.6192 57.1271C24.3133 57.5117 25.5317 57.6151 27.2433 57.622H27.2485C27.3614 57.6341 27.4731 57.6466 27.586 57.6561Z" fill="white"/>
<path d="M26.369 53.7798C26.369 53.7815 26.369 53.7815 26.369 53.7824C26.3608 53.7936 26.3539 53.8056 26.3461 53.8164C26.0521 54.2488 25.7559 54.6791 25.4593 55.1098C25.3058 55.3319 25.1536 55.5535 25.0023 55.7768C24.9195 55.8979 24.8078 56.0311 24.7113 56.1751C24.4677 56.1178 24.2245 56.0622 23.9835 55.9941C23.7865 55.9372 23.592 55.8759 23.401 55.7996C23.3627 55.7858 23.326 55.7707 23.2907 55.7535C23.2592 55.6897 23.2144 55.6323 23.16 55.5888C23.1613 55.5875 23.1613 55.5836 23.1626 55.5819C23.232 55.4405 23.3027 55.2978 23.3722 55.1564C23.5041 54.8968 23.6364 54.6386 23.783 54.3881C24.0447 53.9363 24.3599 53.4767 24.8022 53.1839C24.8242 53.1676 24.8484 53.1525 24.8716 53.1378C25.0432 53.03 25.2148 52.9542 25.4252 52.9283C25.4498 52.9257 25.5981 52.9266 25.6675 52.9326C25.6796 52.9326 25.6895 52.9339 25.6964 52.9339H25.6977C25.7029 52.9356 25.7128 52.9382 25.7274 52.9434C25.7792 52.9598 25.8313 52.9705 25.8831 52.9882C25.9008 52.9968 25.9167 53.0046 25.9348 53.0141C25.9797 53.0412 26.0258 53.0658 26.068 53.0999C25.9999 53.0481 26.162 53.2154 26.162 53.2034C26.2926 53.384 26.3323 53.5353 26.369 53.7798Z" fill="white"/>
<path d="M24.0408 52.5536C23.4968 53.0011 23.101 53.597 22.7707 54.2169C22.5853 54.561 22.4181 54.9119 22.2439 55.2616C22.2262 55.2974 22.2085 55.3314 22.1883 55.3663C22.0236 55.3306 21.8589 55.2831 21.6981 55.2318C21.5269 55.1775 21.3566 55.115 21.1936 55.0391C21.1191 55.0033 21.044 54.9667 20.9695 54.9274C21.1324 54.6188 21.3269 54.3221 21.5123 54.0341C21.7735 53.6271 22.0563 53.2275 22.3637 52.852C22.4793 52.7093 22.6017 52.5528 22.7638 52.4588C22.9294 52.3609 23.1299 52.3842 23.32 52.395C23.5213 52.4075 23.7378 52.4127 23.9279 52.489C23.9671 52.5058 24.0098 52.5321 24.0408 52.5536Z" fill="white"/>
<path d="M23.1769 59.8553C23.1497 59.8781 23.1268 59.9027 23.1066 59.9316C23.0876 59.9368 23.0682 59.9411 23.0561 59.9441C22.9255 59.9575 22.7923 59.9669 22.6604 59.9756C22.4073 59.9915 22.1503 60.0027 21.8947 59.9933C21.752 59.9881 21.6226 59.9661 21.564 59.8751C21.47 59.7324 21.4415 59.4832 21.4079 59.294C21.2406 58.3649 21.2187 57.397 21.3372 56.4567C21.8227 56.6309 22.3223 56.7658 22.8345 56.8499C22.7242 57.6975 22.9121 58.9417 23.0221 59.3228C23.0734 59.5 23.1251 59.6794 23.1769 59.8553Z" fill="white"/>
<path d="M21.6149 52.2441C21.185 52.7718 20.7935 53.3335 20.4422 53.9156C20.3003 54.1523 20.14 54.3972 20.0218 54.6502C19.8515 54.6028 19.698 54.5347 19.5351 54.4338C19.41 54.3562 19.2885 54.2704 19.1703 54.1807C19.1406 54.1562 19.0591 54.0923 19.0082 54.0514C18.9966 54.0423 18.9854 54.0329 18.9729 54.026C19.0121 53.9147 19.0841 53.7906 19.1238 53.7073C19.2139 53.5103 19.3143 53.3167 19.4195 53.1283C19.6191 52.7748 19.8425 52.429 20.0955 52.1109C20.1895 51.9936 20.2788 51.8427 20.4249 51.7992C20.5582 51.7612 20.7336 51.7789 20.841 51.7974C21.1592 51.8591 21.4083 52.0035 21.6149 52.2441Z" fill="white"/>
<path d="M18.3029 54.5347C18.3089 54.5123 18.3382 54.5093 18.3516 54.5282C18.4646 54.689 18.6219 54.8287 18.7909 54.9602C18.8664 55.0175 18.941 55.0745 19.0173 55.1284C19.0268 55.1353 19.0311 55.1469 19.0285 55.1585C18.8504 55.8962 18.7288 56.6796 18.731 57.4513C18.731 57.4854 18.6797 57.4922 18.6719 57.459C18.4542 56.5606 18.1585 55.0628 18.3029 54.5347Z" fill="white"/>
<path d="M20.4073 56.1389C20.3202 56.7809 20.2783 57.4246 20.3064 58.0717C20.3202 58.4265 20.3581 58.7792 20.406 59.1297C20.406 59.1323 20.406 59.1353 20.4073 59.1366V59.1383C20.3309 59.1206 20.2512 59.118 20.1697 59.1297C20.1857 59.1245 20.1438 59.1271 20.1261 59.1271H20.121C20.1089 59.1258 20.0912 59.1245 20.0852 59.1232C19.9955 59.1012 19.9878 59.0918 19.9166 59.0469C19.8239 58.987 19.7261 58.8779 19.661 58.7667C19.4881 58.4675 19.4501 58.104 19.4363 57.7652C19.4109 57.1004 19.4678 56.4364 19.592 55.785C19.698 55.8281 19.7903 55.8677 19.9442 55.9341C20.0964 56.0005 20.2542 56.0661 20.4081 56.1372V56.1389H20.4073Z" fill="white"/>
<path d="M37.3826 89.7327C34.4531 89.7327 31.6744 89.5477 29.3429 89.3662L28.7001 89.3162L28.0581 89.227C27.7774 89.1873 27.3959 89.1463 27.0277 89.1063C24.7845 88.8622 20.6129 88.4078 16.0079 86.2453L15.2927 85.9081L14.6257 85.5348C5.7754 80.5737 2.46301 73.1078 0.679413 69.094C0.566025 68.8392 0.428065 68.5288 0.298725 68.2429C-0.601912 66.4003 -1.17101 64.7391 -1.65388 63.2185L-1.76123 62.8788L-1.85047 62.5489C-3.13525 57.9833 -3.45989 54.0406 -2.8714 50.1418C-2.28161 46.2271 -0.831275 42.6656 1.68784 38.9376L2.99417 36.8043C3.25932 36.3736 3.44643 35.8994 3.54731 35.4036C4.54323 30.4675 6.80323 26.9711 7.91383 25.3013C8.2195 23.2797 8.72349 21.2935 9.41848 19.3711L9.52196 19.0796L9.63275 18.7955C9.65086 18.7455 9.67415 18.6748 9.71683 18.5459C10.2156 17.0434 11.3853 13.5271 14.38 9.83486L15.5048 8.47248L16.6507 7.43734C19.5945 4.76216 23.1018 2.78241 26.913 1.64422C29.0411 1.00959 31.2347 0.621576 33.4511 0.487925L33.6654 0.471972L33.9883 0.45688C34.3716 0.438773 34.7536 0.430152 35.1261 0.430152C36.5092 0.427565 37.8901 0.543971 39.2529 0.777644C40.1048 0.921211 40.9796 0.821186 41.7767 0.489214C44.1398 -0.496785 46.624 -1.16374 49.1629 -1.49399C49.375 -1.52417 49.56 -1.54745 49.7057 -1.56642C50.1062 -1.61643 50.7426 -1.69145 51.5117 -1.76474C52.8526 -1.89279 54.9086 -2.04541 57.1376 -2.04541C61.4903 -2.04541 65.2373 -1.48149 68.5915 -0.321744L68.8769 -0.222585L69.1559 -0.117815C76.558 2.67937 80.3261 6.58715 83.0362 10.0345L83.1647 10.1987L83.5376 10.5303C85.9856 12.4458 88.0675 14.7873 89.683 17.4431L90.1883 18.2743L90.6146 19.146C94.2353 26.5365 93.0846 33.3604 92.6509 35.9244L92.6276 36.0615C92.3159 37.9529 91.8197 39.8093 91.1462 41.6041C90.8983 43.3347 90.4909 45.0385 89.9287 46.6936C88.9677 49.6361 87.5497 52.4087 85.7269 54.9106C84.6775 56.395 83.4923 57.7789 82.1869 59.0443C81.7251 59.4905 81.4259 60.0781 81.3367 60.7136C81.2802 61.1051 81.2159 61.4922 81.1426 61.8755C80.0812 67.5686 77.5914 71.5307 76.5752 73.1087L73.5025 77.5217C69.8021 82.1318 65.4115 85.1726 60.0986 86.8066L58.8112 87.2101L57.4208 87.452C55.8304 87.7327 54.2184 87.8724 52.6034 87.8689C52.3805 87.8689 52.1563 87.8689 51.9075 87.8624H51.8359L51.5617 87.8797L51.2677 87.8905H51.2595C50.6439 87.9111 50.0334 88.0116 49.4436 88.1897C46.0118 89.2395 42.1298 89.7327 37.3826 89.7327Z" stroke="url(#paint1_linear_1160_23265)" stroke-width="0.369702" stroke-miterlimit="10"/>
<path d="M37.3826 86.6984C34.5755 86.6984 31.8831 86.5195 29.6201 86.341L29.0838 86.2996L28.5474 86.2254C28.2129 86.1789 27.8046 86.1362 27.4101 86.0913C25.2316 85.8546 21.5894 85.4584 17.5234 83.5515L16.9262 83.2709L16.3709 82.9587C8.56096 78.5784 5.6715 72.0744 3.94438 68.1873C3.82108 67.9101 3.66976 67.5695 3.52878 67.2604C2.72428 65.61 2.19657 64.0855 1.75121 62.683L1.66197 62.4002L1.58436 62.1251C0.441859 58.0643 0.146533 54.5993 0.656132 51.2184C1.16573 47.837 2.44965 44.7126 4.68895 41.4192L6.36261 38.6862C6.6588 38.2021 6.86186 37.6666 6.96145 37.1083C7.79483 32.4654 9.98802 29.1737 10.9848 27.6755L11.1107 27.4858L11.1572 27.4108C11.1779 27.3651 11.1973 27.3216 11.2163 27.2742C11.2771 27.0767 11.337 26.8853 11.3952 26.7029C11.6574 24.7982 12.12 22.9271 12.7762 21.1198L12.8658 20.8766L12.9615 20.6326C12.9917 20.555 13.0202 20.4709 13.1042 20.2187C13.5789 18.7882 14.5671 15.8185 17.1517 12.6321L18.0894 11.4969L19.0414 10.6359C21.5941 8.31642 24.6349 6.60008 27.9395 5.61322C29.8158 5.0562 31.7495 4.71647 33.7029 4.60049L33.8818 4.58626L34.15 4.57376C34.4764 4.55824 34.8019 4.55134 35.1192 4.55134C36.5208 4.54875 37.9185 4.14521 39.2917 4.42718C40.351 4.64619 41.4525 4.52893 42.442 4.09176C44.2907 3.27649 46.7796 2.95098 49.629 2.59616C49.832 2.56641 50.0088 2.54442 50.1463 2.52718C50.521 2.47975 51.1203 2.40905 51.845 2.3405C53.1056 2.21978 55.0457 2.07234 57.1315 2.07234C61.0803 2.07234 64.4444 2.57201 67.4171 3.59983L67.6547 3.68218L67.887 3.77186C74.4484 6.25087 77.691 9.56929 80.2174 12.7868C80.3576 12.9658 80.5016 13.149 80.555 13.2124L80.6149 13.2658L81.0944 13.6926L81.1586 13.7586C83.3414 15.4305 85.1936 17.4944 86.6211 19.844L87.0414 20.5369L87.3988 21.2629C90.5133 27.6199 89.5372 33.4036 89.1208 35.8735L89.0983 36.005C88.8026 37.7994 88.3193 39.558 87.6553 41.251C87.4462 42.8988 87.0712 44.5212 86.5361 46.0939C85.6864 48.6971 84.4322 51.1511 82.8198 53.3645C81.7281 54.9166 80.4658 56.3406 79.0568 57.6112C78.4032 58.1984 77.9906 59.0072 77.8992 59.8811C77.8311 60.5248 77.7393 61.1504 77.6229 61.7647C76.6869 66.79 74.4993 70.2658 73.4978 71.8222L71.0089 75.4402C67.7012 79.6903 63.7818 82.4698 59.0337 83.9335L57.9611 84.2694L56.7987 84.4707C55.4118 84.7156 54.0054 84.8372 52.5969 84.8346C52.3921 84.8346 52.183 84.8346 51.958 84.829H51.7609C51.7609 84.829 51.7165 84.829 51.6251 84.8355L51.3794 84.8505L50.6374 84.8781C49.9838 84.9014 49.3367 85.0139 48.7132 85.2127C45.5522 86.222 41.8992 86.6984 37.3826 86.6984Z" stroke="url(#paint2_linear_1160_23265)" stroke-width="0.369702" stroke-miterlimit="10"/>
<path d="M37.3831 83.1243C34.701 83.1243 32.0922 82.9501 29.8964 82.7794L29.4683 82.7462L29.0411 82.6871C28.6539 82.6337 28.2185 82.5862 27.7972 82.5397C25.7153 82.3133 22.5711 81.971 19.0452 80.3172L18.5667 80.093L18.1196 79.8434C11.3469 76.0464 8.85973 70.4456 7.2128 66.7391C7.07268 66.4218 6.91359 66.064 6.76614 65.7324C6.05089 64.2778 5.5732 62.8904 5.16664 61.6056L5.09508 61.3806L5.03256 61.1594C4.0319 57.6051 3.76762 54.6165 4.19832 51.7564C4.63549 48.8562 5.77454 46.153 7.78061 43.2472L8.01945 42.9023L8.2777 42.5707C8.44023 42.3633 8.59674 42.1586 8.75066 41.9581L9.75735 40.112C10.0876 39.5088 10.3105 38.8526 10.4161 38.1732C11.0564 34.0313 13.0516 31.0388 13.9725 29.6588L13.9768 29.6514C14.0299 29.5725 14.0976 29.4725 14.1325 29.4173L14.3291 29.1034C14.4063 28.9353 14.508 28.712 14.5973 28.4774C14.6869 28.1976 14.7934 27.8519 14.9094 27.494C15.1275 25.7298 15.5457 23.9958 16.1558 22.326L16.2252 22.1312L16.3015 21.9342C16.3658 21.7708 16.4132 21.6285 16.5063 21.3487C16.9469 20.0247 17.7639 17.5672 19.9373 14.886L20.6892 13.9767L21.4484 13.2912C23.6088 11.3279 26.1827 9.87453 28.9803 9.03942C30.6039 8.55742 32.278 8.26512 33.9689 8.16854L34.1116 8.15777L34.3289 8.14785C34.5971 8.13534 34.8653 8.12931 35.1334 8.12931C36.5876 8.12715 38.0358 8.31124 39.4426 8.67728C40.661 8.98553 41.9492 8.8493 43.0758 8.29357C44.8792 7.41838 47.2914 6.48971 50.117 6.14265C50.311 6.11506 50.4749 6.0935 50.6081 6.07668C50.9595 6.03271 51.5191 5.96675 52.1985 5.89777C53.3811 5.78438 55.1996 5.64943 57.1449 5.64943C60.6897 5.64943 63.671 6.08445 66.2638 6.98034L66.4544 7.04673L66.6402 7.11615C72.6666 9.39425 75.3646 12.3777 77.4203 14.9942C77.8734 15.5706 77.9419 15.6603 78.2532 15.9367L78.6369 16.2781L78.7861 16.4308C79.7777 17.199 81.8053 18.7804 83.5798 21.7057L83.9166 22.2597L84.2011 22.84C86.8099 28.1636 85.9981 32.9716 85.6083 35.2829L85.5868 35.4105C85.3078 37.1048 84.8357 38.7621 84.1795 40.3491L84.1619 40.4948C83.9886 42.0128 83.6531 43.508 83.1612 44.9549C82.4235 47.2205 81.3328 49.3554 79.9294 51.2809C78.7555 52.9636 77.3444 54.4674 75.7401 55.7465C75.3586 56.0492 75.046 56.4299 74.8235 56.8632C74.6011 57.2969 74.4743 57.7729 74.451 58.2596C74.4075 59.2146 74.2975 60.1661 74.1221 61.1059C73.312 65.4634 71.4098 68.4843 70.4389 69.9924L68.5096 72.8435C65.6012 76.7259 62.1538 79.2389 57.9878 80.5164L57.1307 80.7845L56.2033 80.9458C55.0181 81.1553 53.8161 81.2592 52.6124 81.2566C52.4253 81.2566 52.2352 81.2566 52.0295 81.2515H51.7764C51.7415 81.2515 51.635 81.2514 51.4186 81.2648L51.222 81.2773L51.0319 81.2847L50.0377 81.3213C49.3414 81.345 48.652 81.4696 47.9911 81.6903C45.0956 82.6656 41.6793 83.1243 37.3831 83.1243Z" stroke="url(#paint3_linear_1160_23265)" stroke-width="0.369702" stroke-miterlimit="10"/>
<path d="M37.3822 79.5476C34.8191 79.5476 32.2991 79.3786 30.1732 79.2135L29.852 79.1885L29.5313 79.1445C29.0924 79.0837 28.6302 79.0328 28.1822 78.9846C26.2253 78.7707 23.5493 78.4801 20.5624 77.0794L20.205 76.9104L19.8713 76.7237C14.1355 73.5053 12.0255 68.7572 10.4842 65.2875C10.3243 64.9301 10.1579 64.5537 9.99361 64.1933C9.33829 62.8757 8.92095 61.6104 8.57389 60.5278L8.52043 60.3588L8.47387 60.1937C6.79676 54.2333 7.42708 50.0522 10.7222 45.2817L10.9012 45.0221L11.0952 44.7738C11.3142 44.494 11.519 44.225 11.7207 43.9693C12.0247 43.5705 12.3325 43.1644 12.6675 42.747C12.8757 42.4871 13.0434 42.1969 13.1655 41.8869L13.5436 40.9216C13.7039 40.5108 13.8044 40.0796 13.8423 39.6403C14.1704 35.8166 16.0299 33.0293 16.9508 31.648L16.956 31.6407C17.0232 31.5389 17.125 31.3872 17.159 31.3324L17.3746 30.9884L17.4406 30.8987C17.5553 30.6672 17.7794 30.1783 17.9769 29.6661C18.0834 29.3156 18.2515 28.7775 18.4158 28.2882C18.4158 28.2696 18.4158 28.2489 18.4231 28.2274C18.5995 26.6253 18.9685 25.0504 19.5229 23.5367L19.5755 23.3901L19.6329 23.2426C19.7329 22.9878 19.8036 22.7749 19.9011 22.4808C20.2942 21.2991 20.9522 19.3206 22.7155 17.1464L23.2794 16.4635L23.8455 15.9522C28.0094 12.1738 32.6691 11.8478 34.2263 11.7431L34.3337 11.7349L34.4983 11.7271C34.71 11.7172 34.9222 11.7129 35.1295 11.7129C36.9782 11.7193 38.8075 12.0931 40.5105 12.8131C40.8123 12.9386 41.1378 12.9955 41.4642 12.98C41.7905 12.9645 42.1092 12.8769 42.3976 12.7239H42.4066C43.9898 11.8056 46.89 10.141 50.5878 9.69561C50.7663 9.66888 50.931 9.64862 51.0517 9.6331C51.3772 9.59214 51.8963 9.53135 52.5348 9.4697C53.6398 9.36407 55.3367 9.23818 57.1406 9.23818C60.2814 9.23818 62.8811 9.60981 65.0894 10.3733L65.2325 10.4225L65.3718 10.4755C70.5363 12.4268 72.7636 14.8757 74.6015 17.2163C75.096 17.8418 75.3168 18.1324 75.8703 18.6205L76.1579 18.877L76.3885 19.1141L76.5675 19.2555C77.4427 19.9328 79.0706 21.1943 80.5153 23.5707L80.7684 23.9863L80.9818 24.4218C83.0827 28.7128 82.4257 32.6047 82.0726 34.6965L82.0523 34.8207C81.8031 36.3417 81.3703 37.8265 80.7628 39.2424L80.7119 39.364C80.7068 39.3903 80.6994 39.4286 80.6887 39.4847C80.6611 39.6287 80.6451 39.7434 80.6261 39.8891L80.6046 40.0533C80.4615 41.336 80.1795 42.5992 79.7635 43.8206C79.1379 45.7477 78.2109 47.5637 77.018 49.2007C75.838 50.8761 74.5148 52.2406 73.03 53.3206C72.3781 53.7965 71.8457 54.4178 71.4749 55.1348C71.1041 55.8517 70.905 56.6455 70.8933 57.4525C70.8808 58.4592 70.7821 59.4629 70.5989 60.4528C69.9142 64.1441 68.3389 66.6438 67.3585 68.167L65.9564 70.2688C63.4459 73.7761 60.4845 76.0158 56.9199 77.107L56.7315 77.166C56.4288 77.2613 56.1201 77.3359 55.808 77.3898L55.5816 77.429C54.5982 77.6032 53.6014 77.6899 52.6029 77.6873C52.4339 77.6873 52.2623 77.6873 52.0761 77.683H52.0459C51.961 77.683 51.867 77.683 51.767 77.683C51.6971 77.683 51.513 77.683 51.1802 77.7037L51.0327 77.7123L50.8887 77.7179C50.4106 77.7356 49.8161 77.7563 49.2858 77.7795C48.5593 77.8097 47.8415 77.9503 47.1573 78.1969C44.5916 79.1135 41.4517 79.5476 37.3822 79.5476Z" stroke="url(#paint4_linear_1160_23265)" stroke-width="0.369702" stroke-miterlimit="10"/>
<path d="M37.3822 75.9718C34.9407 75.9718 32.5082 75.8084 30.4504 75.6485L30.2357 75.6321L30.0219 75.6019C29.5295 75.5338 29.0385 75.4803 28.5655 75.4294C26.7668 75.2337 24.5284 74.9897 22.0804 73.8416L21.8412 73.7291L21.6191 73.6049C16.9206 70.9702 15.1646 67.015 13.7522 63.8367C13.5785 63.4453 13.3944 63.0413 13.2155 62.6477C12.6623 61.5436 12.2877 60.4127 11.9803 59.4448L11.9445 59.3327L11.913 59.2228C10.5291 54.3057 10.9861 51.1847 13.6617 47.311L13.7807 47.1386L13.9104 46.9734C14.1437 46.6747 14.3571 46.3957 14.561 46.1267C15.2595 45.211 15.9307 44.3297 16.9349 43.2579C17.1547 43.0226 17.2867 42.7182 17.3073 42.397L17.3837 41.2398L17.3539 40.8608L17.3673 40.4677C17.472 37.295 19.0659 34.9078 19.9187 33.6256C20.0175 33.4773 20.1201 33.3247 20.1809 33.2272L20.3248 32.9983L20.4581 32.8194C20.6172 32.5594 21.0354 31.6726 21.3518 30.8215C21.4609 30.4637 21.6721 29.7816 21.858 29.2406C21.9127 29.0681 21.9179 29.0263 21.9627 28.6559C22.108 27.3173 22.4163 26.001 22.8806 24.7369L22.9155 24.6382L22.9539 24.5391C23.0863 24.2011 23.1785 23.9251 23.285 23.6048C23.6217 22.5912 24.1296 21.0633 25.4834 19.3944L25.8606 18.9382L26.234 18.6002C29.1514 15.9513 32.3293 15.4499 34.4742 15.3059L34.5466 15.2995H34.6574C34.8131 15.2926 34.9679 15.2891 35.1196 15.2891C36.9515 15.2891 39.1425 16.1678 40.2932 16.6989C40.5683 16.8248 40.8658 16.8955 41.1684 16.9067C41.4711 16.9175 41.7729 16.8683 42.0561 16.7623C42.7722 16.5027 43.4698 16.1958 44.1445 15.8431C45.6082 14.9938 48.0364 13.5913 51.0517 13.2399C51.2181 13.2149 51.3673 13.196 51.4906 13.18C51.7937 13.1425 52.2722 13.0908 52.8646 13.0287C53.8929 12.9304 55.4674 12.8136 57.1311 12.8136C59.8666 12.8136 62.0848 13.121 63.9111 13.7521L64.006 13.7853L64.0952 13.8203C68.4087 15.4499 70.1255 17.3228 71.7767 19.4245C72.313 20.1023 72.692 20.5869 73.4797 21.2913L73.6711 21.4621L73.8496 21.641C74.0104 21.8001 74.1833 21.9462 74.3674 22.0782C75.1076 22.6511 76.3484 23.6113 77.4491 25.4233L77.6173 25.7005L77.76 25.9911C79.3552 29.2462 78.8426 32.2822 78.536 34.096L78.5158 34.2193C78.3118 35.4717 77.9548 36.694 77.4526 37.8589V37.8679C77.3138 38.1693 77.2176 38.4883 77.1676 38.8164C77.1245 39.0454 77.0978 39.2295 77.0719 39.4334L77.0503 39.5994C76.9357 40.6457 76.7067 41.6765 76.3683 42.6729C75.8578 44.2633 75.0943 45.7607 74.1074 47.1075C72.6502 49.186 70.9658 50.6484 68.9364 51.5775C68.4432 51.8026 68.022 52.1591 67.7193 52.6088C67.4162 53.058 67.2434 53.5823 67.2196 54.1233C67.2102 54.3454 67.2063 54.5277 67.2127 54.6295C67.3128 56.1932 67.4261 57.9651 67.0778 59.7906C66.519 62.8098 65.2403 64.8391 64.2793 66.3291C64.2793 66.3291 59.8701 72.4658 55.858 73.6907L55.426 73.8256L54.9621 73.9067C54.1813 74.0455 53.3897 74.1141 52.5965 74.1115C52.4464 74.1115 52.2925 74.1115 52.1274 74.1072H52.1127C52.0067 74.1072 51.8911 74.1072 51.7605 74.1072C51.6031 74.1072 51.3466 74.1072 50.9478 74.1348L50.8504 74.1412H50.7542C49.219 74.1964 47.7682 74.2486 47.3647 74.327C47.1491 74.3607 46.9387 74.4223 46.7391 74.5111C44.4683 75.5062 41.4905 75.9718 37.3822 75.9718Z" stroke="url(#paint5_linear_1160_23265)" stroke-width="0.369702" stroke-miterlimit="10"/>
<path d="M37.3826 72.3973C35.0636 72.3973 32.7169 72.2391 30.7268 72.0843L30.6203 72.0761L30.5138 72.061C29.9693 71.986 29.4528 71.9295 28.9523 71.8752C27.2588 71.6907 25.5075 71.5005 23.5989 70.6055L23.479 70.5482L23.3682 70.4865C19.7027 68.4304 18.3412 65.3595 17.0207 62.386C16.8331 61.9643 16.6391 61.528 16.4386 61.0943C15.9915 60.2109 15.6751 59.2633 15.391 58.3657L15.3729 58.3105L15.3569 58.254C14.2567 54.3402 14.5365 52.3419 16.6085 49.3442L16.6684 49.255L16.7327 49.1718C16.9758 48.8618 17.197 48.5721 17.4095 48.2923C18.4055 46.9859 19.2664 45.8568 21.1957 44.0762L21.2009 44.0706C21.3428 43.9357 21.4419 43.7624 21.4872 43.5718C21.5325 43.3817 21.5213 43.1821 21.4557 42.998L21.1082 42.0064C21.0384 41.6938 20.9892 41.3769 20.9616 41.0579V41.0471L20.9401 40.7789L20.947 40.5823C21.0177 38.4288 22.1507 36.731 22.8996 35.6071C23.0169 35.4282 23.1285 35.2648 23.2152 35.1251L23.2867 35.0108L23.3674 34.9026C23.7653 34.3663 24.4116 32.8815 24.7513 31.9614C24.8406 31.6782 25.0695 30.9172 25.26 30.3658C25.3954 29.9506 25.4834 29.5221 25.5217 29.0871C25.6343 28.011 25.8813 26.9525 26.2568 25.9376L26.2745 25.8876L26.2943 25.8385C26.4595 25.4138 26.5759 25.065 26.6884 24.727C26.988 23.8268 27.3269 22.8059 28.2698 21.6427L28.4595 21.4138L28.6444 21.2469C30.7169 19.3642 32.9885 18.9848 34.7407 18.8688H34.8347C34.933 18.8688 35.0312 18.8623 35.1287 18.8623C36.8338 18.8623 38.1445 19.5616 39.0115 20.0247L39.2137 20.132L39.2438 20.148C39.4818 20.2769 39.6909 20.3894 39.8849 20.4851C40.4239 20.7554 41.043 20.8188 41.6254 20.664C42.8128 20.3446 44.6653 19.6423 45.9113 18.9572L45.9372 18.9421C47.2478 18.182 49.222 17.0378 51.5355 16.7839C51.6812 16.7606 51.8209 16.7438 51.9524 16.7265C52.2205 16.6929 52.6672 16.6373 53.2134 16.5881C54.1649 16.4989 55.6174 16.3889 57.1402 16.3889C59.4718 16.3889 61.3071 16.6321 62.7518 17.1309L62.7992 17.1477L62.8475 17.1658C66.3082 18.4735 67.5706 19.8423 68.9765 21.6358C69.5491 22.3644 70.0897 23.0525 71.1154 23.9656L71.2106 24.0549L71.3003 24.1441C71.5775 24.4239 71.8763 24.6813 72.1941 24.9141C72.8093 25.3905 73.6522 26.0433 74.4097 27.2893L74.4937 27.4281L74.5653 27.5738C75.653 29.7954 75.2909 31.9424 75.0266 33.5096L75.0059 33.6334C74.8477 34.6219 74.564 35.5864 74.1626 36.5038C73.9285 37.032 73.7621 37.5877 73.6677 38.1577C73.6052 38.4883 73.5685 38.747 73.5379 38.9863L73.5163 39.1562C73.4305 39.9667 73.2551 40.7647 72.9934 41.536C72.5967 42.788 71.997 43.9659 71.218 45.0226C69.9039 46.9092 68.4466 48.0724 66.5109 48.6881C65.5835 48.9817 64.7855 49.5861 64.2517 50.3992L64.0982 50.6355L63.9284 50.8295C63.4365 51.3891 63.5753 53.5577 63.6602 54.8524C63.7495 56.273 63.8452 57.7418 63.5796 59.1249C63.1433 61.4892 62.1305 63.0853 61.2239 64.4886C61.2239 64.4886 57.8571 69.3457 54.8194 70.2684L54.5982 70.3382L54.3658 70.3783C53.7873 70.4822 53.2005 70.5331 52.6129 70.5305C52.4805 70.5305 52.3447 70.5305 52.2007 70.5305C52.0731 70.5305 51.9325 70.5305 51.7769 70.5305C51.5704 70.5305 51.2406 70.5305 50.7383 70.5654H50.6417C48.6042 70.6396 47.375 70.6831 46.6955 70.8155C46.2381 70.8965 45.7919 71.0297 45.3651 71.2134C43.5457 72.0201 41.005 72.3973 37.3826 72.3973Z" stroke="url(#paint6_linear_1160_23265)" stroke-width="0.369702" stroke-miterlimit="10"/>
</g>
<defs>
<radialGradient id="paint0_radial_1160_23265" cx="0" cy="0" r="1" gradientUnits="userSpaceOnUse" gradientTransform="translate(44.465 49.2212) rotate(90) scale(44.939 44.9392)">
<stop offset="0.166667" stop-color="#073183"/>
<stop offset="1" stop-color="#0054F9"/>
</radialGradient>
<linearGradient id="paint1_linear_1160_23265" x1="-3.15415" y1="-2.04541" x2="88.516" y2="94.1684" gradientUnits="userSpaceOnUse">
<stop offset="0.205697" stop-color="#89D0FF"/>
<stop offset="0.398413" stop-color="#EBBF9A"/>
<stop offset="0.601546" stop-color="#A280EB"/>
<stop offset="0.841139" stop-color="#A281FF"/>
</linearGradient>
<linearGradient id="paint2_linear_1160_23265" x1="-3.15415" y1="-2.04541" x2="88.516" y2="94.1684" gradientUnits="userSpaceOnUse">
<stop offset="0.205697" stop-color="#89D0FF"/>
<stop offset="0.398413" stop-color="#EBBF9A"/>
<stop offset="0.601546" stop-color="#A280EB"/>
<stop offset="0.841139" stop-color="#A281FF"/>
</linearGradient>
<linearGradient id="paint3_linear_1160_23265" x1="-3.15415" y1="-2.04541" x2="88.516" y2="94.1684" gradientUnits="userSpaceOnUse">
<stop offset="0.205697" stop-color="#89D0FF"/>
<stop offset="0.398413" stop-color="#EBBF9A"/>
<stop offset="0.601546" stop-color="#A280EB"/>
<stop offset="0.841139" stop-color="#A281FF"/>
</linearGradient>
<linearGradient id="paint4_linear_1160_23265" x1="-3.15415" y1="-2.04541" x2="88.516" y2="94.1684" gradientUnits="userSpaceOnUse">
<stop offset="0.205697" stop-color="#89D0FF"/>
<stop offset="0.398413" stop-color="#EBBF9A"/>
<stop offset="0.601546" stop-color="#A280EB"/>
<stop offset="0.841139" stop-color="#A281FF"/>
</linearGradient>
<linearGradient id="paint5_linear_1160_23265" x1="-3.15415" y1="-2.04541" x2="88.516" y2="94.1684" gradientUnits="userSpaceOnUse">
<stop offset="0.205697" stop-color="#89D0FF"/>
<stop offset="0.398413" stop-color="#EBBF9A"/>
<stop offset="0.601546" stop-color="#A280EB"/>
<stop offset="0.841139" stop-color="#A281FF"/>
</linearGradient>
<linearGradient id="paint6_linear_1160_23265" x1="-3.15415" y1="-2.04541" x2="88.516" y2="94.1684" gradientUnits="userSpaceOnUse">
<stop offset="0.205697" stop-color="#89D0FF"/>
<stop offset="0.398413" stop-color="#EBBF9A"/>
<stop offset="0.601546" stop-color="#A280EB"/>
<stop offset="0.841139" stop-color="#A281FF"/>
</linearGradient>
</defs>
</svg>
