<svg width="90" height="90" viewBox="0 0 90 90" fill="none" xmlns="http://www.w3.org/2000/svg">
<path d="M83.811 54.654C78.4734 76.0695 56.7832 89.1465 35.3283 83.8058C13.9128 78.4519 0.856743 56.7615 6.19428 35.346C11.5318 13.9305 33.209 0.853463 54.6115 6.19424C76.0794 11.4696 89.1354 33.2254 83.811 54.654Z" fill="#000008"/>
<path d="M30.9949 40.7067H31.0219L31.481 40.8687L31.913 41.0307L32.372 41.1657L32.8041 41.3548L33.2631 41.5168L33.6951 41.6788L34.1542 41.8408L34.5862 42.0028L35.0183 42.1648L35.4503 42.3269L35.9093 42.4889L36.3414 42.6779L36.8004 42.8129L37.2324 42.9749L37.6915 43.1369L38.1235 43.326L38.5826 43.488L39.0146 43.623L39.4466 43.785L39.9057 43.974L40.3647 44.136V43.434V43.326V42.7589V42.3539V42.0568V41.3548V40.6797V39.9776V39.3025V38.5735V37.8984V37.8174H39.8247H39.3116H39.2576H38.6906H38.2585H38.0965H37.5295H37.2324H36.9354H36.3414H36.1794H35.7743H35.2073H35.1803H35.1533H34.6132H34.1272H34.0462H33.4521H33.0741H32.048H31.0219H30.9949H30.4009L29.9688 38.0334L28.9427 38.5735L27.8897 39.1405L26.8366 39.6536L25.8375 40.1936L24.7844 40.7607L23.7313 41.2737L22.7052 41.8408L21.6521 42.3809L20.626 42.8939L19.6 43.461L18.6549 43.947L18.5469 59.4196L19.6 60.1487L20.626 60.8778L21.6521 61.5799L22.7052 62.3359L23.7313 63.065L24.7844 63.7941L25.2434 64.1451L25.8375 63.3891L26.8366 62.0389L26.9446 61.9039L26.8366 61.8229L25.8375 61.0938L24.7844 60.3647L23.7313 59.6357L22.7052 58.9066L21.6521 58.1505L21.3821 57.9885L21.4631 45.4592L21.6521 45.3512L22.7052 44.8381L23.7313 44.3251L24.7844 43.812L25.8375 43.299L26.8366 42.7589L27.8897 42.2458L28.9427 41.7598L29.9688 41.2197L30.9949 40.7067Z" fill="url(#paint0_linear_1160_23355)"/>
<path d="M48.8701 70.2207L48.0061 70.5718L47.034 70.9768L46.0619 71.3548L45.0898 71.7599L44.6578 71.9219L44.1448 71.6789L43.1727 71.1658L42.2006 70.7068L41.2555 70.1937L40.2834 69.7077L39.3113 69.2486L38.3393 68.7356L37.3672 68.2495L36.3951 67.7635L35.423 67.2774L34.4509 66.7644L33.5329 66.3053L32.5608 65.8193L32.4528 65.7653V53.1279H31.5887H30.6166H29.6445V67.4934L30.6166 67.9525L31.5887 68.4385L32.5608 68.9516L33.5329 69.4106L34.4509 69.9237L35.423 70.4097L36.3951 70.8958L37.3672 71.3818L38.3393 71.8679L39.3113 72.3539L40.2834 72.84L41.2555 73.353L42.2006 73.8121L43.1727 74.3251L44.1448 74.7842L44.5228 75.0002L45.0898 74.7302L46.0619 74.3792L47.034 73.9741L48.0061 73.5691L48.9512 73.191L49.9232 72.813L48.9512 70.3827L48.8701 70.2207Z" fill="url(#paint1_linear_1160_23355)"/>
<path d="M66.1257 52.6685L66.1797 58.6091L65.9366 58.8251L64.2895 59.9593L62.6424 61.1474L60.9952 62.3355L59.3481 63.4966L57.701 64.6578L56.0808 65.8459L54.4337 67.007L53.4616 67.7091L52.7865 67.196L51.1664 65.9269L49.5193 64.6848L47.8721 63.4156L46.252 62.1735L45.955 61.9575V55.5578L46.252 55.2878L47.8721 53.5596L49.5193 51.8584L51.1664 50.1302L52.7865 48.4291L54.3797 46.7549H52.7865H51.1664H49.5193H47.8721H46.252H44.5779H42.9307H41.3106H39.6634H38.0163H36.3962H34.749L36.3962 48.4831L38.0163 50.1842L39.6634 51.8854L41.3106 53.6136L42.9307 55.3148L43.1737 55.5578V63.3076L44.5779 64.4147L46.252 65.6839L47.8721 66.926L49.5193 68.1951L51.1664 69.4373L52.7865 70.7064L53.3806 71.1654L54.4337 70.4094L56.0808 69.2752L57.701 68.0871L59.3481 66.899L60.9952 65.7649L62.6424 64.5767L64.2895 63.3886L65.9366 62.2545L67.5838 61.0664L68.9339 60.0673L69.2039 52.7765L67.5838 52.7225L66.1257 52.6685Z" fill="url(#paint2_linear_1160_23355)"/>
<path d="M21.2227 38.843H21.4118L21.4388 30.9042L22.4918 30.2291L23.815 29.446L25.1111 28.6629L26.4072 27.8528L27.7033 27.0698L29.0264 26.2597L30.2955 25.4766L31.6186 24.6935L32.9147 23.8834L34.2378 23.0733H34.2648L35.5069 23.8024L36.83 24.5315L38.1262 25.2876L39.4223 26.0167L40.7184 26.7457L42.0145 27.4748L43.3106 28.2309L44.5797 28.96L44.6337 28.852L45.9298 26.5027L44.6337 25.7466L43.3106 25.0175L42.0145 24.2885L40.7184 23.5594L39.4223 22.8033L38.1262 22.0742L36.83 21.3452L35.5069 20.5891L34.2378 19.86L34.1838 19.833L32.9147 20.5891L31.6186 21.3992L30.2955 22.2093L29.0264 23.0193L27.7033 23.8024L26.4072 24.5855L25.1111 25.3956L23.815 26.1787L22.4918 26.9888L21.2227 27.7718L19.8996 28.5549L18.6575 29.338L18.6035 38.816H19.8996L21.2227 38.843Z" fill="url(#paint3_linear_1160_23355)"/>
<path d="M71.985 31.5797L71.31 31.0396L70.6349 30.4996L69.9599 29.9325L69.2848 29.3924L68.6097 28.8524L67.9077 28.3123L67.2326 27.7723L66.5576 27.2322L65.8555 26.6651L65.3425 26.2871L65.1535 26.5031L64.4784 27.3402L63.8033 28.2043L63.6143 28.4203L63.8033 28.6094L64.4784 29.1764L65.1535 29.7435L65.8555 30.3105L66.5576 30.8776L67.2326 31.4717L67.9077 32.0387L68.6097 32.6058L68.9338 32.8758L68.9608 45.6481L68.6097 45.8912L67.9077 46.3232L67.2326 46.7553L66.5576 47.1873L65.8555 47.6193L65.1535 48.0514L64.4784 48.4834L63.8033 48.9155L63.1283 49.3475L62.4532 49.7796L61.7782 50.2116L61.0761 50.6437L60.4011 51.0757L59.726 51.5077L59.0509 51.9398L58.3489 52.3718L57.6738 52.8039L58.3489 53.884L59.0509 54.9641L59.159 55.1531L59.726 54.8021L60.4011 54.397L61.0761 53.965L61.7782 53.56L62.4532 53.1009L63.1283 52.6959L63.8033 52.2638L64.4784 51.8588L65.1535 51.4267L65.8555 51.0217L66.5576 50.5626L67.2326 50.1576L67.9077 49.7256L68.6097 49.3205L69.2848 48.8885L69.9599 48.4834L70.6349 48.0244L71.31 47.6193L71.985 47.1873V31.5797Z" fill="url(#paint4_linear_1160_23355)"/>
<path d="M49.7086 39.1945V39.8966V40.5987V41.3008V42.0298V42.7589V43.461V44.163V44.7031L49.9246 44.6221L50.8427 44.2711L51.7608 43.893L52.6518 43.542L53.5699 43.1639L54.488 42.7859L55.3791 42.4349L56.2971 42.0568L57.2152 41.7058L58.1063 41.3278L59.0244 40.9767L59.9154 40.5987V39.8966V39.6266V37.7634V23.8839L58.8894 23.2359L57.8363 22.6418L56.7832 22.0477L55.7571 21.3997L54.704 20.8056L53.6509 20.2115L52.6248 19.5905L51.5717 18.9694L50.5457 18.3484L49.4926 17.7543L48.4395 17.1332L47.4134 16.5122L46.3873 15.9181L45.3342 15.324L44.7672 15L44.2811 15.27L43.228 15.8371L42.175 16.3771L41.1759 16.9712L40.1228 17.5383L39.0697 18.0783L38.0166 18.6724L39.0697 19.2664L40.1228 19.8605L40.7708 20.2656L41.1759 20.0495L42.175 19.5095L43.228 18.9424L44.2811 18.4024L44.6862 18.1863L45.3342 18.5644L46.3873 19.1584L47.4134 19.7525L48.4395 20.3736L49.4926 20.9946L50.5457 21.5887L51.5717 22.2098L52.6248 22.8308L53.6509 23.4249L54.704 24.0189L55.7571 24.667L56.7832 25.2611L57.1342 25.4501V37.7634H56.8912H56.7832H56.2971H55.7571H55.7031H55.082H54.704H54.488H53.8939H53.6509H53.2999H52.7058H52.6248H52.1118H51.5717H51.5177H50.8967H50.5457H50.3026H49.8436H49.7626" fill="url(#paint5_linear_1160_23355)"/>
<path d="M49.709 44.7024L59.9158 40.598L49.709 37.7627" fill="url(#paint6_linear_1160_23355)"/>
<path d="M40.3652 44.7028V37.8711L31.0225 40.6524L40.3652 44.6758" fill="url(#paint7_linear_1160_23355)"/>
<defs>
<linearGradient id="paint0_linear_1160_23355" x1="29.449" y1="37.8255" x2="29.449" y2="64.1343" gradientUnits="userSpaceOnUse">
<stop stop-color="#F6E93D"/>
<stop offset="0.13" stop-color="#F8E330"/>
<stop offset="0.35" stop-color="#F7C730"/>
<stop offset="0.64" stop-color="#F59C2E"/>
<stop offset="0.98" stop-color="#EB5E2C"/>
<stop offset="1" stop-color="#EB5C2C"/>
</linearGradient>
<linearGradient id="paint1_linear_1160_23355" x1="39.7879" y1="53.1387" x2="39.7879" y2="74.9975" gradientUnits="userSpaceOnUse">
<stop stop-color="#F6E93D"/>
<stop offset="0.13" stop-color="#F8E330"/>
<stop offset="0.35" stop-color="#F7C730"/>
<stop offset="0.64" stop-color="#F59C2E"/>
<stop offset="0.98" stop-color="#EB5E2C"/>
<stop offset="1" stop-color="#EB5C2C"/>
</linearGradient>
<linearGradient id="paint2_linear_1160_23355" x1="51.9751" y1="46.7522" x2="51.9751" y2="71.1735" gradientUnits="userSpaceOnUse">
<stop stop-color="#F6E93D"/>
<stop offset="0.13" stop-color="#F8E330"/>
<stop offset="0.35" stop-color="#F7C730"/>
<stop offset="0.64" stop-color="#F59C2E"/>
<stop offset="0.98" stop-color="#EB5E2C"/>
<stop offset="1" stop-color="#EB5C2C"/>
</linearGradient>
<linearGradient id="paint3_linear_1160_23355" x1="32.2653" y1="19.8411" x2="32.2653" y2="38.8457" gradientUnits="userSpaceOnUse">
<stop stop-color="#F6E93D"/>
<stop offset="0.13" stop-color="#F8E330"/>
<stop offset="0.35" stop-color="#F7C730"/>
<stop offset="0.64" stop-color="#F59C2E"/>
<stop offset="0.98" stop-color="#EB5E2C"/>
<stop offset="1" stop-color="#EB5C2C"/>
</linearGradient>
<linearGradient id="paint4_linear_1160_23355" x1="64.8402" y1="26.2817" x2="64.8402" y2="55.1558" gradientUnits="userSpaceOnUse">
<stop stop-color="#F6E93D"/>
<stop offset="0.13" stop-color="#F8E330"/>
<stop offset="0.35" stop-color="#F7C730"/>
<stop offset="0.64" stop-color="#F59C2E"/>
<stop offset="0.98" stop-color="#EB5E2C"/>
<stop offset="1" stop-color="#EB5C2C"/>
</linearGradient>
<linearGradient id="paint5_linear_1160_23355" x1="48.9633" y1="15" x2="48.9633" y2="44.7112" gradientUnits="userSpaceOnUse">
<stop stop-color="#F6E93D"/>
<stop offset="0.13" stop-color="#F8E330"/>
<stop offset="0.35" stop-color="#F7C730"/>
<stop offset="0.64" stop-color="#F59C2E"/>
<stop offset="0.98" stop-color="#EB5E2C"/>
<stop offset="1" stop-color="#EB5C2C"/>
</linearGradient>
<linearGradient id="paint6_linear_1160_23355" x1="54.8016" y1="37.7816" x2="54.8016" y2="44.7186" gradientUnits="userSpaceOnUse">
<stop stop-color="#F6E93D"/>
<stop offset="0.13" stop-color="#F8E330"/>
<stop offset="0.35" stop-color="#F7C730"/>
<stop offset="0.64" stop-color="#F59C2E"/>
<stop offset="0.98" stop-color="#EB5E2C"/>
<stop offset="1" stop-color="#EB5C2C"/>
</linearGradient>
<linearGradient id="paint7_linear_1160_23355" x1="35.5812" y1="42.9874" x2="37.7847" y2="36.9334" gradientUnits="userSpaceOnUse">
<stop stop-color="#F6E93D"/>
<stop offset="0.13" stop-color="#F8E330"/>
<stop offset="0.35" stop-color="#F7C730"/>
<stop offset="0.64" stop-color="#F59C2E"/>
<stop offset="0.98" stop-color="#EB5E2C"/>
<stop offset="1" stop-color="#EB5C2C"/>
</linearGradient>
</defs>
</svg>
