<svg width="90" height="90" viewBox="0 0 90 90" fill="none" xmlns="http://www.w3.org/2000/svg">
<path d="M83.8461 54.6511C78.5086 76.0665 56.8183 89.1436 35.3635 83.8028C13.9479 78.449 0.8919 56.7586 6.22944 35.3431C11.567 13.9276 33.2442 0.850533 54.6467 6.19131C76.1146 11.4666 89.1706 33.2225 83.8461 54.6511Z" fill="url(#paint0_linear_1157_19561)"/>
<path d="M47.5254 47.0928H60.3131C60.5857 47.0928 60.7145 47.0928 60.7341 46.7354C60.8386 45.4345 60.8386 44.1261 60.7341 42.8237C60.7341 42.5708 60.6085 42.4663 60.3343 42.4663H34.8846C34.5696 42.4663 34.4848 42.5708 34.4848 42.8661V46.6097C34.4848 47.0928 34.4848 47.0928 34.9891 47.0928H47.5254ZM59.3061 38.0911C59.3424 37.9957 59.3424 37.8912 59.3061 37.7973C59.0925 37.3324 58.8396 36.8887 58.5458 36.4722C58.1036 35.7604 57.5826 35.1047 56.989 34.5156C56.7088 34.1597 56.3848 33.8401 56.0213 33.5691C54.201 32.0198 52.0369 30.9234 49.7107 30.3721C48.537 30.1086 47.3376 29.9829 46.1352 29.9935H34.8407C34.5257 29.9935 34.4833 30.1192 34.4833 30.3933V37.8594C34.4833 38.1744 34.4833 38.2592 34.8831 38.2592H59.1546C59.1546 38.2592 59.3651 38.2168 59.4075 38.0911H59.3045H59.3061ZM59.3061 51.4679C58.9487 51.4286 58.5882 51.4286 58.2308 51.4679H34.9058C34.5908 51.4679 34.4848 51.4679 34.4848 51.889V59.1884C34.4848 59.5247 34.4848 59.6095 34.9058 59.6095H45.6748C46.1897 59.6488 46.7046 59.6125 47.2089 59.505C48.7718 59.3929 50.3089 59.0537 51.7749 58.4949C52.3079 58.3101 52.8228 58.0693 53.309 57.78H53.4559C55.9804 56.467 58.0309 54.4044 59.3242 51.8723C59.3242 51.8723 59.4711 51.5543 59.3061 51.471V51.4679ZM30.2581 63.394V63.2683V58.3676V56.7063V51.7633C30.2581 51.4892 30.2581 51.4483 29.9219 51.4483H25.3574C25.1045 51.4483 25 51.4483 25 51.1121V47.1155H29.8794C30.152 47.1155 30.2581 47.1155 30.2581 46.7581V42.804C30.2581 42.5511 30.2581 42.489 29.9219 42.489H25.3574C25.1045 42.489 25 42.489 25 42.1528V38.4515C25 38.2198 25 38.1577 25.3362 38.1577H29.8582C30.1732 38.1577 30.2581 38.1577 30.2581 37.7579V26.421C30.2581 26.0848 30.2581 26 30.6791 26H46.4532C47.5981 26.0454 48.7354 26.1711 49.8606 26.3786C52.1792 26.8072 54.4069 27.6356 56.4438 28.8183C57.7947 29.6134 59.038 30.5735 60.145 31.6791C60.978 32.5438 61.7291 33.4797 62.3955 34.4762C63.0573 35.4863 63.607 36.5661 64.0386 37.6943C64.0916 37.9881 64.3733 38.1865 64.6671 38.1365H68.4319C68.915 38.1365 68.915 38.1365 68.9362 38.6V42.0498C68.9362 42.386 68.8105 42.4708 68.4728 42.4708H65.5697C65.2759 42.4708 65.1911 42.4708 65.2123 42.8494C65.3274 44.1306 65.3274 45.4163 65.2123 46.6975C65.2123 47.0549 65.2123 47.0973 65.6136 47.0973H68.9347C69.0816 47.2866 68.9347 47.476 68.9347 47.6668C68.9559 47.9106 68.9559 48.1574 68.9347 48.4013V50.947C68.9347 51.3044 68.8302 51.4104 68.5137 51.4104H64.5384C64.2612 51.3574 63.9917 51.5346 63.9281 51.8102C62.9815 54.2711 61.4671 56.4776 59.5105 58.2465C58.7957 58.8901 58.0445 59.4959 57.2601 60.0547C56.4181 60.5393 55.5988 61.0436 54.7355 61.4434C53.1469 62.1582 51.4811 62.6852 49.7713 63.0199C48.1478 63.3107 46.5017 63.4424 44.8494 63.4197H30.252V63.3985L30.2581 63.394Z" fill="white"/>
<defs>
<linearGradient id="paint0_linear_1157_19561" x1="45.0352" y1="4.99707" x2="45.0352" y2="84.9971" gradientUnits="userSpaceOnUse">
<stop stop-color="#F9AA11"/>
<stop offset="1" stop-color="#F9C757"/>
</linearGradient>
</defs>
</svg>
