<svg width="90" height="90" viewBox="0 0 90 90" fill="none" xmlns="http://www.w3.org/2000/svg">
<path d="M83.8461 54.6511C78.5086 76.0665 56.8183 89.1436 35.3635 83.8028C13.9479 78.449 0.8919 56.7586 6.22944 35.3431C11.567 13.9276 33.2442 0.850533 54.6467 6.19131C76.1146 11.4666 89.1706 33.2225 83.8461 54.6511Z" fill="#328332"/>
<path d="M45.9743 46.2892L30.2613 44.9402L45.972 36.0515V46.2892H45.9743ZM45.9743 56.7163V72.9414C40.5107 64.4361 34.4882 55.0751 29.6348 47.4979C35.3626 50.7242 41.343 54.0955 45.9743 56.7163ZM45.9743 33.1782L29.6348 42.2961L45.9743 16.9414V33.1782Z" fill="white"/>
<path d="M61.6867 44.9402L45.9736 46.2892V36.0515L61.6867 44.9402ZM45.9736 56.7186C50.6027 54.1002 56.5807 50.7242 62.3109 47.4979C57.4574 55.0774 51.435 64.4384 45.9736 72.9391V56.7186ZM45.9736 33.1782V16.9414L62.3109 42.2961L45.9736 33.1782Z" fill="white" fill-opacity="0.601"/>
<path opacity="0.2" fill-rule="evenodd" clip-rule="evenodd" d="M45.9736 46.2894L61.6843 44.9404L45.9736 53.766V46.2894Z" fill="white"/>
<path opacity="0.603" fill-rule="evenodd" clip-rule="evenodd" d="M45.9728 46.2894L30.2598 44.9404L45.9728 53.766V46.2894Z" fill="white"/>
</svg>
