<svg width="90" height="90" viewBox="0 0 90 90" fill="none" xmlns="http://www.w3.org/2000/svg">
<path d="M83.8461 54.6511C78.5086 76.0665 56.8183 89.1436 35.3635 83.8028C13.9479 78.449 0.8919 56.7586 6.22944 35.3431C11.567 13.9276 33.2442 0.850533 54.6467 6.19131C76.1146 11.4666 89.1706 33.2225 83.8461 54.6511Z" fill="#000008"/>
<path d="M52.9597 26.9801C53.4459 26.9801 53.8947 26.7806 54.2314 26.4315L56.7746 23.7762C57.0862 23.4396 57.535 23.2526 57.9961 23.2526H58.0959C58.5822 23.2526 59.0309 23.4646 59.355 23.8261L61.4991 26.257C61.9105 26.7183 62.4964 26.9801 63.1073 26.9801H68.8541C63.3817 19.6998 54.6801 15 44.8817 15C35.0833 15 26.3694 19.6998 20.8966 26.9801H52.9597Z" fill="white"/>
<path d="M55.9891 35.0706H61.2746L73.1674 35.0582C73.9901 37.4018 74.5263 39.8951 74.7381 42.4631H52.4486C51.8377 42.4631 51.2519 42.2013 50.8404 41.7401L48.6963 39.3216C48.372 38.9601 47.9233 38.7482 47.4371 38.7482H47.3375C46.8887 38.7482 46.4398 38.9352 46.1281 39.2718L43.5852 41.9271C43.2484 42.2761 42.7997 42.4756 42.3135 42.4756H15C15.2118 39.8951 15.748 37.4143 16.5707 35.0831H45.5048C46.4025 35.0831 47.2751 34.6842 47.8734 34.011L49.7185 31.9292C50.0425 31.5676 50.4913 31.3557 50.9775 31.3557C51.4637 31.3557 51.9125 31.5676 52.2366 31.9292L54.3809 34.3476C54.7921 34.8089 55.3782 35.0706 55.9891 35.0706Z" fill="white"/>
<path d="M32.8019 57.4849C32.4654 57.834 32.0164 58.0335 31.5304 58.0335L17.8672 58.0459C16.7329 55.7023 15.9101 53.1966 15.4115 50.5662H34.8464C35.7563 50.5662 36.6289 50.1797 37.2274 49.4941L39.0725 47.4122C39.3842 47.0632 39.8453 46.8512 40.3315 46.8512C40.8178 46.8512 41.2665 47.0507 41.5906 47.4122L43.7347 49.8057C44.1462 50.267 44.732 50.5288 45.3429 50.5288H74.352C73.8533 53.1592 73.0303 55.6649 71.896 58.0085H41.6777C41.0671 58.0085 40.481 57.7467 40.0698 57.2855L37.9255 54.867C37.6138 54.518 37.1527 54.306 36.6664 54.306H36.5666C36.1054 54.306 35.6691 54.493 35.345 54.8296L32.8019 57.4849Z" fill="white"/>
<path d="M33.5747 65.4509L66.8099 65.4633C61.3247 71.3225 53.5458 75 44.8817 75C36.2177 75 28.4263 71.3225 22.9536 65.4633H23.0782C23.9884 65.4633 24.861 65.0769 25.4592 64.3912L27.3043 62.3094C27.616 61.9603 28.0771 61.7484 28.5634 61.7484C29.0496 61.7484 29.4983 61.9479 29.8224 62.3094L31.9667 64.7278C32.378 65.1891 32.964 65.4509 33.5747 65.4509Z" fill="white"/>
</svg>
